# xmcd CD database file
# Copyright (C) 1993-1998 Ti Kan
#
# Track frame offsets:
#	150
#	24175
#	41217
#	59747
#	78825
#	90082
#	112280
#	125185
#	135832
#
# Disc length: 2130 seconds
#
# Revision: 1
# Processed by: cddbd v1.4b41PL1 Copyright (c) Steve Scherf et al.
# Submitted via: CDValet v3.01 - Copyright (c) 1997 Greg Leichner
#
DISCID=72085009
DTITLE=Galaxy - The Time Of My Live
DYEAR=1900
DGENRE=
TTITLE0=The time of my life
TTITLE1=The wind beneath my wings
TTITLE2=You´ve lost that lovin´feeling
TTITLE3=Unchain my heart
TTITLE4=Born to boogie
TTITLE5=I´ve got the music in me
TTITLE6=Respect
TTITLE7=Midnight hour
TTITLE8=Black velvet
EXTD=
EXTT0=
EXTT1=
EXTT2=
EXTT3=
EXTT4=
EXTT5=
EXTT6=
EXTT7=
EXTT8=
PLAYORDER=
